<?xml version="1.0" encoding="UTF-8" standalone="no"?>
<!-- Created with Inkscape (http://www.inkscape.org/) -->

<svg
   xmlns:dc="http://purl.org/dc/elements/1.1/"
   xmlns:cc="http://creativecommons.org/ns#"
   xmlns:rdf="http://www.w3.org/1999/02/22-rdf-syntax-ns#"
   xmlns:svg="http://www.w3.org/2000/svg"
   xmlns="http://www.w3.org/2000/svg"
   xmlns:sodipodi="http://sodipodi.sourceforge.net/DTD/sodipodi-0.dtd"
   xmlns:inkscape="http://www.inkscape.org/namespaces/inkscape"
   width="200mm"
   height="200mm"
   viewBox="0 0 708.66142 708.66141"
   id="svg5066"
   version="1.1"
   inkscape:version="0.91 r13725"
   sodipodi:docname="go.svg">
  <defs id="defs5068">
  </defs>
  <sodipodi:namedview
     id="base"
     pagecolor="#ffffff"
     bordercolor="#666666"
     borderopacity="1.0"
     inkscape:pageopacity="0.0"
     inkscape:pageshadow="2"
     inkscape:zoom="0.98994949"
     inkscape:cx="-52.071269"
     inkscape:cy="359.45605"
     inkscape:document-units="px"
     inkscape:current-layer="layer1"
     showgrid="true"
     inkscape:window-width="1920"
     inkscape:window-height="1015"
     inkscape:window-x="0"
     inkscape:window-y="0"
     inkscape:window-maximized="1">
    <inkscape:grid
       type="xygrid"
       id="grid5614" />
  </sodipodi:namedview>
  <metadata
     id="metadata5071">
    <rdf:RDF>
      <cc:Work
         rdf:about="">
        <dc:format>image/svg+xml</dc:format>
        <dc:type
           rdf:resource="http://purl.org/dc/dcmitype/StillImage" />
        <dc:title />
      </cc:Work>
    </rdf:RDF>
  </metadata>
  <g
     inkscape:label="Layer 1"
     inkscape:groupmode="layer"
     id="layer1"
     transform="translate(0,-343.70079)">
    <g
       transform="matrix(0.70710678,-0.70710678,0.70710678,0.70710678,0,0)"
       style="font-style:normal;font-weight:normal;font-size:40px;line-height:125%;font-family:sans-serif;letter-spacing:0px;word-spacing:0px;fill:#aa0000;fill-opacity:1;stroke:none;stroke-width:1px;stroke-linecap:butt;stroke-linejoin:miter;stroke-opacity:1"
       id="text5717">
      <path
         d="m -468.03879,617.39142 q 0,-7.69043 2.92969,-14.46533 2.92969,-6.95801 8.05664,-11.90186 5.12695,-5.12695 11.90186,-8.05664 6.958,-3.11279 14.64843,-3.11279 l 142.45606,0 q 7.69043,0 14.46533,3.11279 6.95801,2.92969 12.08496,8.05664 5.12695,4.94385 8.05664,11.90186 2.92969,6.7749 2.92969,14.46533 l 0,33.87451 -37.53662,0 0,-33.87451 -142.45606,0 0,187.5 142.45606,0 0,-63.7207 -71.22803,0 0,-37.53663 108.76465,0 0,101.25733 q 0,7.69043 -2.92969,14.64844 -2.92969,6.7749 -8.05664,11.90185 -5.12695,5.12695 -12.08496,8.05664 -6.7749,2.92969 -14.46533,2.92969 l -142.45606,0 q -7.69043,0 -14.64843,-2.92969 -6.77491,-2.92969 -11.90186,-8.05664 -5.12695,-5.12695 -8.05664,-11.90185 -2.92969,-6.95801 -2.92969,-14.64844 l 0,-187.5 z"
         style="font-style:normal;font-variant:normal;font-weight:normal;font-stretch:normal;font-size:375px;font-family:Aldrich;-inkscape-font-specification:Aldrich;fill:#aa0000"
         id="path4143" />
      <path
         d="m 41.909943,804.89142 q 0,7.69043 -2.929688,14.64844 -2.929687,6.7749 -8.05664,11.90185 -5.126954,5.12695 -12.084961,8.05664 -6.774903,2.92969 -14.4653325,2.92969 l -149.9633815,0 q -7.69043,0 -14.64843,-2.92969 -6.77491,-2.92969 -11.90186,-8.05664 -5.12695,-5.12695 -8.05664,-11.90185 -2.92969,-6.95801 -2.92969,-14.64844 l 0,-187.5 q 0,-7.69043 2.92969,-14.46533 2.92969,-6.95801 8.05664,-11.90186 5.12695,-5.12695 11.90186,-8.05664 6.958,-3.11279 14.64843,-3.11279 l 149.9633815,0 q 7.6904295,0 14.4653325,3.11279 6.958007,2.92969 12.084961,8.05664 5.126953,4.94385 8.05664,11.90186 2.929688,6.7749 2.929688,14.46533 l 0,187.5 z m -187.500003,-187.5 0,187.5 149.9633815,0 0,-187.5 -149.9633815,0 z"
         style="font-style:normal;font-variant:normal;font-weight:normal;font-stretch:normal;font-size:375px;font-family:Aldrich;-inkscape-font-specification:Aldrich;fill:#aa0000"
         id="path4145" />
    </g>
    <flowRoot
       xml:space="preserve"
       id="flowRoot5721"
       style="fill:black;stroke:none;stroke-opacity:1;stroke-width:1px;stroke-linejoin:miter;stroke-linecap:butt;fill-opacity:1;font-family:sans-serif;font-style:normal;font-weight:normal;font-size:40px;line-height:125%;letter-spacing:0px;word-spacing:0px"><flowRegion
         id="flowRegion5723"><rect
           id="rect5725"
           width="370"
           height="290"
           x="180"
           y="18.661438" /></flowRegion><flowPara
         id="flowPara5727" /></flowRoot>    <path
       style="fill:#aa0000;fill-opacity:1;fill-rule:evenodd;stroke:#000000;stroke-width:1px;stroke-linecap:butt;stroke-linejoin:miter;stroke-opacity:1"
       d="m 131.42857,945.21937 0,20 424.53825,-0.0867 20,-20 81.53317,0.25254 -38.92856,41.26266 39.16316,40.71439 -80.72404,-0.4604 -21.30637,-20.0905 -424.27561,-1.592 0,20 -79.999999,-40.00006 z"
       id="path5733"
       inkscape:connector-curvature="0"
       sodipodi:nodetypes="ccccccccccccc" />
  </g>
</svg>
