<?xml version="1.0" encoding="UTF-8" standalone="no"?>
<!-- Created with Inkscape (http://www.inkscape.org/) -->

<svg
   xmlns:dc="http://purl.org/dc/elements/1.1/"
   xmlns:cc="http://creativecommons.org/ns#"
   xmlns:rdf="http://www.w3.org/1999/02/22-rdf-syntax-ns#"
   xmlns:svg="http://www.w3.org/2000/svg"
   xmlns="http://www.w3.org/2000/svg"
   xmlns:sodipodi="http://sodipodi.sourceforge.net/DTD/sodipodi-0.dtd"
   xmlns:inkscape="http://www.inkscape.org/namespaces/inkscape"
   width="200mm"
   height="200mm"
   viewBox="0 0 708.66142 708.66141"
   id="svg2"
   version="1.1"
   inkscape:version="0.91 r13725"
   sodipodi:docname="goto_jail.svg">
  <defs id="defs4">
</style>
  </defs>
  <sodipodi:namedview
     id="base"
     pagecolor="#ffffff"
     bordercolor="#666666"
     borderopacity="1.0"
     inkscape:pageopacity="0.0"
     inkscape:pageshadow="2"
     inkscape:zoom="0.7"
     inkscape:cx="200.63916"
     inkscape:cy="419.76674"
     inkscape:document-units="px"
     inkscape:current-layer="layer1"
     showgrid="true"
     showguides="true"
     inkscape:guide-bbox="true"
     inkscape:window-width="1920"
     inkscape:window-height="1015"
     inkscape:window-x="0"
     inkscape:window-y="0"
     inkscape:window-maximized="1"
     inkscape:snap-bbox="false"
     inkscape:bbox-paths="true"
     inkscape:bbox-nodes="true"
     inkscape:snap-bbox-edge-midpoints="true"
     inkscape:snap-bbox-midpoints="true"
     inkscape:object-paths="true"
     inkscape:snap-intersection-paths="true"
     inkscape:object-nodes="true"
     inkscape:snap-smooth-nodes="true"
     inkscape:snap-midpoints="true"
     inkscape:snap-object-midpoints="true"
     inkscape:snap-center="true"
     inkscape:snap-text-baseline="true"
     inkscape:snap-page="true"
     inkscape:snap-nodes="false"
     inkscape:snap-others="false">
    <inkscape:grid
       type="xygrid"
       id="grid4976" />
  </sodipodi:namedview>
  <metadata
     id="metadata7">
    <rdf:RDF>
      <cc:Work
         rdf:about="">
        <dc:format>image/svg+xml</dc:format>
        <dc:type
           rdf:resource="http://purl.org/dc/dcmitype/StillImage" />
        <dc:title />
      </cc:Work>
    </rdf:RDF>
  </metadata>
  <g
     inkscape:label="Layer 1"
     inkscape:groupmode="layer"
     id="layer1"
     transform="translate(0,-343.70079)">
    <text
       xml:space="preserve"
       style="font-style:normal;font-weight:normal;font-size:40px;line-height:125%;font-family:sans-serif;letter-spacing:0px;word-spacing:0px;fill:#000000;fill-opacity:1;stroke:none;stroke-width:1px;stroke-linecap:butt;stroke-linejoin:miter;stroke-opacity:1"
       x="260"
       y="697.36218"
       id="text5218"
       sodipodi:linespacing="125%"><tspan
         sodipodi:role="line"
         id="tspan5220"
         x="260"
         y="697.36218" /></text>
    <g
       transform="matrix(0.70710678,-0.70710678,0.70710678,0.70710678,-133.29991,796.99078)"
       style="font-style:normal;font-variant:normal;font-weight:normal;font-stretch:normal;font-size:150px;line-height:125%;font-family:Aldrich;-inkscape-font-specification:aldrich;letter-spacing:0px;word-spacing:0px;fill:#000000;fill-opacity:1;stroke:none;stroke-width:1px;stroke-linecap:butt;stroke-linejoin:miter;stroke-opacity:1"
       id="flowRoot5257">
      <path
         d="m 94.869141,251.73234 q 0,-3.00293 1.098632,-5.63965 1.171875,-2.63672 3.076172,-4.54101 1.977535,-1.97754 4.614255,-3.07617 2.63672,-1.17188 5.56641,-1.17188 l 25.85449,0 q 2.85645,0 5.41992,1.09863 2.56348,1.02539 4.46778,2.92969 1.97754,1.83106 3.14941,4.39453 1.24512,2.49024 1.31836,5.34668 l 0,-13.76953 14.42871,0 0,95.06836 q 0,3.00293 -1.17187,5.63965 -1.09864,2.63672 -3.07618,4.54101 -1.90429,1.97754 -4.54101,3.07618 -2.63672,1.17187 -5.63965,1.17187 l -45.55664,0 0,-14.42871 45.55664,0 0,-20.06836 -40.20996,0 q -2.92969,0 -5.56641,-1.09863 -2.63672,-1.17188 -4.614255,-3.07617 -1.904297,-1.97754 -3.076172,-4.61426 -1.098632,-2.63672 -1.098632,-5.63965 l 0,-46.14258 z m 54.565429,46.14258 0,-46.14258 -40.20996,0 0,46.14258 40.20996,0 z"
         style="font-style:normal;font-variant:normal;font-weight:normal;font-stretch:normal;font-size:150px;font-family:aldrich;-inkscape-font-specification:aldrich;fill:#aa0000"
         id="path4142" />
      <path
         d="m 255.48926,300.87785 q 0,3.00293 -1.17188,5.63965 -1.09863,2.63672 -3.07617,4.61426 -1.9043,1.90429 -4.54101,3.07617 -2.56348,1.09863 -5.56641,1.09863 l -38.74512,0 q -2.92969,0 -5.5664,-1.09863 -2.63672,-1.17188 -4.61426,-3.07617 -1.9043,-1.97754 -3.07617,-4.61426 -1.09864,-2.63672 -1.09864,-5.63965 l 0,-49.14551 q 0,-3.00293 1.09864,-5.63965 1.17187,-2.63672 3.07617,-4.54101 1.97754,-1.97754 4.61426,-3.07617 2.63671,-1.17188 5.5664,-1.17188 l 38.74512,0 q 3.00293,0 5.56641,1.17188 2.63671,1.09863 4.54101,3.07617 1.97754,1.90429 3.07617,4.54101 1.17188,2.63672 1.17188,5.63965 l 0,49.14551 z m -53.10059,-49.14551 0,49.14551 38.74512,0 0,-49.14551 -38.74512,0 z"
         style="font-style:normal;font-variant:normal;font-weight:normal;font-stretch:normal;font-size:150px;font-family:aldrich;-inkscape-font-specification:aldrich;fill:#aa0000"
         id="path4144" />
      <path
         d="m 274.89844,237.30363 19.04297,0 0,-24.02344 14.42871,0 0,24.02344 25.63476,0 0,14.42871 -25.63476,0 0,49.14551 25.63476,0 0,14.42871 -25.63476,0 q -2.92969,0 -5.56641,-1.09863 -2.63672,-1.17188 -4.61426,-3.07617 -1.97754,-1.97754 -3.14941,-4.61426 -1.09863,-2.63672 -1.09863,-5.63965 l 0,-49.14551 -19.04297,0 0,-14.42871 z"
         style="font-style:normal;font-variant:normal;font-weight:normal;font-stretch:normal;font-size:150px;font-family:aldrich;-inkscape-font-specification:aldrich;fill:#aa0000"
         id="path4146" />
      <path
         d="m 425.41113,300.87785 q 0,3.00293 -1.17187,5.63965 -1.09864,2.63672 -3.07617,4.61426 -1.9043,1.90429 -4.54102,3.07617 -2.56348,1.09863 -5.56641,1.09863 l -38.74511,0 q -2.92969,0 -5.56641,-1.09863 -2.63672,-1.17188 -4.61426,-3.07617 -1.90429,-1.97754 -3.07617,-4.61426 -1.09863,-2.63672 -1.09863,-5.63965 l 0,-49.14551 q 0,-3.00293 1.09863,-5.63965 1.17188,-2.63672 3.07617,-4.54101 1.97754,-1.97754 4.61426,-3.07617 2.63672,-1.17188 5.56641,-1.17188 l 38.74511,0 q 3.00293,0 5.56641,1.17188 2.63672,1.09863 4.54102,3.07617 1.97753,1.90429 3.07617,4.54101 1.17187,2.63672 1.17187,5.63965 l 0,49.14551 z m -53.10058,-49.14551 0,49.14551 38.74511,0 0,-49.14551 -38.74511,0 z"
         style="font-style:normal;font-variant:normal;font-weight:normal;font-stretch:normal;font-size:150px;font-family:aldrich;-inkscape-font-specification:aldrich;fill:#aa0000"
         id="path4148" />
      <path
         d="m 495.21094,332.37199 0,-95.06836 14.42871,0 0,95.06836 q 0,3.00293 -1.17188,5.63965 -1.09863,2.63672 -3.07617,4.54101 -1.9043,1.97754 -4.54101,3.07618 -2.63672,1.17187 -5.63965,1.17187 l -11.2793,0 0,-14.42871 11.2793,0 z m -0.73242,-125.09766 15.89355,0 0,15.01465 -15.89355,0 0,-15.01465 z"
         style="font-style:normal;font-variant:normal;font-weight:normal;font-stretch:normal;font-size:150px;font-family:aldrich;-inkscape-font-specification:aldrich;fill:#aa0000"
         id="path4150" />
      <path
         d="m 534.32227,281.24894 q 0,-3.00293 1.09863,-5.5664 1.17187,-2.63672 3.07617,-4.61426 1.97754,-1.97754 4.61426,-3.07617 2.63672,-1.17188 5.5664,-1.17188 l 37.20704,0 0,-15.08789 -47.09473,0 0,-14.42871 47.09473,0 q 3.00293,0 5.63964,1.17188 2.63672,1.09863 4.54102,3.07617 1.97754,1.90429 3.07617,4.54101 1.17188,2.63672 1.17188,5.63965 l 0,63.57422 -14.42871,0 0,-13.18359 q -0.21973,2.70996 -1.46485,5.12695 -1.24512,2.41699 -3.22265,4.24805 -1.9043,1.75781 -4.39454,2.7832 -2.49023,1.02539 -5.27343,1.02539 l -22.85157,0 q -2.92968,0 -5.5664,-1.09863 -2.63672,-1.17188 -4.61426,-3.07617 -1.9043,-1.97754 -3.07617,-4.61426 -1.09863,-2.63672 -1.09863,-5.63965 l 0,-19.62891 z m 14.35546,19.62891 37.20704,0 0,-19.62891 -37.20704,0 0,19.62891 z"
         style="font-style:normal;font-variant:normal;font-weight:normal;font-stretch:normal;font-size:150px;font-family:aldrich;-inkscape-font-specification:aldrich;fill:#aa0000"
         id="path4152" />
      <path
         d="m 639.4248,237.30363 0,78.00293 -14.42871,0 0,-78.00293 14.42871,0 z m -15.16113,-30.0293 15.89356,0 0,15.01465 -15.89356,0 0,-15.01465 z"
         style="font-style:normal;font-variant:normal;font-weight:normal;font-stretch:normal;font-size:150px;font-family:aldrich;-inkscape-font-specification:aldrich;fill:#aa0000"
         id="path4154" />
      <path
         d="m 678.46289,207.27433 0,108.03223 -14.35547,0 0,-108.03223 14.35547,0 z"
         style="font-style:normal;font-variant:normal;font-weight:normal;font-stretch:normal;font-size:150px;font-family:aldrich;-inkscape-font-specification:aldrich;fill:#aa0000"
         id="path4156" />
      <path
         d="m 713.10645,337.64543 -10.62012,0 10.7666,-22.33887 -10.7666,0 0,-21.89941 21.89941,0 0,21.89941 -11.27929,22.33887 z m -10.62012,-100.3418 21.89941,0 0,21.89942 -21.89941,0 0,-21.89942 z"
         style="font-style:normal;font-variant:normal;font-weight:normal;font-stretch:normal;font-size:150px;font-family:aldrich;-inkscape-font-specification:aldrich;fill:#aa0000"
         id="path4158" />
    </g>
  </g>
</svg>
