<?xml version="1.0" encoding="UTF-8" standalone="no"?>
<!-- Created with Inkscape (http://www.inkscape.org/) -->

<svg
   xmlns:dc="http://purl.org/dc/elements/1.1/"
   xmlns:cc="http://creativecommons.org/ns#"
   xmlns:rdf="http://www.w3.org/1999/02/22-rdf-syntax-ns#"
   xmlns:svg="http://www.w3.org/2000/svg"
   xmlns="http://www.w3.org/2000/svg"
   xmlns:sodipodi="http://sodipodi.sourceforge.net/DTD/sodipodi-0.dtd"
   xmlns:inkscape="http://www.inkscape.org/namespaces/inkscape"
   width="200mm"
   height="200mm"
   viewBox="0 0 708.66142 708.66141"
   id="svg2"
   version="1.1"
   inkscape:version="0.91 r13725"
   sodipodi:docname="luxury_tax.svg">
  <defs id="defs4">
  </defs>
  <sodipodi:namedview
     id="base"
     pagecolor="#ffffff"
     bordercolor="#666666"
     borderopacity="1.0"
     inkscape:pageopacity="0.0"
     inkscape:pageshadow="2"
     inkscape:zoom="0.7"
     inkscape:cx="-95.42559"
     inkscape:cy="424.91984"
     inkscape:document-units="px"
     inkscape:current-layer="layer1"
     showgrid="false"
     showguides="true"
     inkscape:guide-bbox="true"
     inkscape:window-width="1920"
     inkscape:window-height="1015"
     inkscape:window-x="0"
     inkscape:window-y="0"
     inkscape:window-maximized="1"
     inkscape:snap-bbox="false"
     inkscape:bbox-paths="true"
     inkscape:bbox-nodes="true"
     inkscape:snap-bbox-edge-midpoints="true"
     inkscape:snap-bbox-midpoints="true"
     inkscape:object-paths="true"
     inkscape:snap-intersection-paths="true"
     inkscape:object-nodes="true"
     inkscape:snap-smooth-nodes="true"
     inkscape:snap-midpoints="true"
     inkscape:snap-object-midpoints="true"
     inkscape:snap-center="true"
     inkscape:snap-text-baseline="true"
     inkscape:snap-page="true"
     inkscape:snap-nodes="true"
     inkscape:snap-others="false">
    <inkscape:grid
       type="xygrid"
       id="grid4976" />
  </sodipodi:namedview>
  <metadata
     id="metadata7">
    <rdf:RDF>
      <cc:Work
         rdf:about="">
        <dc:format>image/svg+xml</dc:format>
        <dc:type
           rdf:resource="http://purl.org/dc/dcmitype/StillImage" />
        <dc:title />
      </cc:Work>
    </rdf:RDF>
  </metadata>
  <g
     inkscape:label="Layer 1"
     inkscape:groupmode="layer"
     id="layer1"
     transform="translate(0,-343.70079)">
    <path
       style="fill:#ffcc00;fill-opacity:1;fill-rule:evenodd;stroke:#000000;stroke-width:2.08888555px;stroke-linecap:butt;stroke-linejoin:miter;stroke-opacity:1"
       d="m 371.76904,922.58613 -181.9492,0 0,-441.26247 c 3.1937,-9.27973 20.9155,-15.05799 45.4873,-19.18532 l 90.97459,0 0,-19.18533 -22.74365,0 0,-28.77799 90.97461,0 0,28.77799 -22.74365,0 0,19.18533 22.74365,0 0,460.44779 z"
       id="path5193"
       inkscape:connector-curvature="0"
       sodipodi:nodetypes="ccccccccccccccc" />
    <path
       style="fill:#ffcc00;fill-opacity:1;fill-rule:evenodd;stroke:#000000;stroke-width:2.09055118;stroke-linecap:butt;stroke-linejoin:miter;stroke-opacity:1;stroke-miterlimit:4;stroke-dasharray:none"
       d="m 326.28173,922.58613 181.94922,0 0,-441.26247 c -0.77989,-8.12831 -23.94948,-13.5585 -45.48731,-19.18532 l -90.9746,0 0,-19.18533 22.74365,0 0,-28.77799 -90.97461,0 0,28.77799 22.74365,0 0,19.18533 -22.74365,0 0,460.44779 z"
       id="path5193-2"
       inkscape:connector-curvature="0"
       sodipodi:nodetypes="ccccccccccccccc" />
    <rect
       style="opacity:1;fill:#ffcc00;fill-opacity:1;stroke:#000000;stroke-width:2.01953721;stroke-linecap:square;stroke-linejoin:miter;stroke-miterlimit:4;stroke-dasharray:none;stroke-opacity:1"
       id="rect5236"
       width="45.606285"
       height="19.137783"
       x="326.03091"
       y="442.95114"
       ry="4.9103335e-05" />
    <rect
       style="opacity:1;fill:#ffcc00;fill-opacity:1;stroke:none;stroke-width:1.06299996;stroke-linecap:square;stroke-linejoin:miter;stroke-miterlimit:4;stroke-dasharray:none;stroke-opacity:1"
       id="rect5216"
       width="181.9492"
       height="458.25229"
       x="258.05078"
       y="463.17294"
       ry="5.1500079e-05" />
    <rect
       style="opacity:1;fill:#ffcc00;fill-opacity:1;stroke:none;stroke-width:2.1361475;stroke-linecap:square;stroke-linejoin:miter;stroke-miterlimit:4;stroke-dasharray:none;stroke-opacity:1"
       id="rect4142"
       width="315.6687"
       height="408.00589"
       x="191.45137"
       y="493.8136" />
    <text
       xml:space="preserve"
       style="font-style:normal;font-weight:normal;font-size:40px;line-height:125%;font-family:sans-serif;letter-spacing:0px;word-spacing:0px;fill:#000000;fill-opacity:1;stroke:none;stroke-width:1px;stroke-linecap:butt;stroke-linejoin:miter;stroke-opacity:1"
       x="260"
       y="697.36218"
       id="text5218"
       sodipodi:linespacing="125%"><tspan
         sodipodi:role="line"
         id="tspan5220"
         x="260"
         y="697.36218" /></text>
    <path
       style="fill:#ffffff;fill-rule:evenodd;stroke:#000000;stroke-width:1px;stroke-linecap:butt;stroke-linejoin:miter;stroke-opacity:1"
       d="M 201.42857,583.79078 205,622.36221 c 0.69852,3.52696 1.93719,6.9459 5,10 l 130.16411,4.91385 c 3.28458,0.0639 6.56917,1.65044 9.85375,4.09086 2.87263,-2.65142 6.4547,-3.52923 10.27411,-3.81371 L 490,632.36221 c 3.52577,-3.64318 4.26296,-6.8216 5,-10 l 4.28571,-41.42857 c 0.44595,-2.28007 -3.57057,-3.18708 -9.28571,-3.57143 l -280,0 c -3.92051,0.76048 -9.13897,-0.16638 -8.57143,6.42857 z"
       id="path4144"
       inkscape:connector-curvature="0"
       sodipodi:nodetypes="cccccccccccc" />
    <g
       style="font-style:normal;font-weight:normal;font-size:40px;line-height:125%;font-family:sans-serif;letter-spacing:0px;word-spacing:0px;fill:#000000;fill-opacity:1;stroke:none;stroke-width:1px;stroke-linecap:butt;stroke-linejoin:miter;stroke-opacity:1"
       id="text5230">
      <path
         d="m 239.11583,621.62177 -11.75537,-23.09327 0,23.09327 -4.5044,0 0,-31.50879 4.92188,0 11.99707,23.73046 12.01904,-23.73046 4.8999,0 0,31.50879 -4.48242,0 0,-23.09327 -11.75537,23.09327 -1.34033,0 z"
         style="font-style:normal;font-variant:normal;font-weight:normal;font-stretch:normal;font-size:45px;font-family:aldrich;-inkscape-font-specification:aldrich;fill:#aa0000"
         id="path4146" />
      <path
         d="m 291.78429,617.11737 q 0,0.92285 -0.35157,1.75781 -0.35156,0.81299 -0.96679,1.42823 -0.61524,0.61523 -1.4502,0.96679 -0.81299,0.35157 -1.73584,0.35157 l -17.9956,0 q -0.92286,0 -1.75782,-0.35157 -0.81298,-0.35156 -1.42822,-0.96679 -0.61523,-0.61524 -0.9668,-1.42823 -0.35156,-0.83496 -0.35156,-1.75781 l 0,-22.5 q 0,-0.92285 0.35156,-1.73584 0.35157,-0.83496 0.9668,-1.42822 0.61524,-0.61524 1.42822,-0.9668 0.83496,-0.37353 1.75782,-0.37353 l 17.9956,0 q 0.92285,0 1.73584,0.37353 0.83496,0.35156 1.4502,0.9668 0.61523,0.59326 0.96679,1.42822 0.35157,0.81299 0.35157,1.73584 l 0,22.5 z m -22.5,-22.5 0,22.5 17.9956,0 0,-22.5 -17.9956,0 z"
         style="font-style:normal;font-variant:normal;font-weight:normal;font-stretch:normal;font-size:45px;font-family:aldrich;-inkscape-font-specification:aldrich;fill:#aa0000"
         id="path4148" />
      <path
         d="m 304.35265,621.62177 -4.5044,0 0,-31.50879 4.5044,0 18.94043,24.43359 0,-24.43359 4.50439,0 0,31.50879 -4.50439,0 -18.94043,-24.4336 0,24.4336 z"
         style="font-style:normal;font-variant:normal;font-weight:normal;font-stretch:normal;font-size:45px;font-family:aldrich;-inkscape-font-specification:aldrich;fill:#aa0000"
         id="path4150" />
      <path
         d="m 362.8878,617.11737 q 0,0.92285 -0.35156,1.75781 -0.35156,0.81299 -0.9668,1.42823 -0.61523,0.61523 -1.45019,0.96679 -0.81299,0.35157 -1.73584,0.35157 l -17.99561,0 q -0.92285,0 -1.75781,-0.35157 -0.81299,-0.35156 -1.42822,-0.96679 -0.61524,-0.61524 -0.9668,-1.42823 -0.35156,-0.83496 -0.35156,-1.75781 l 0,-22.5 q 0,-0.92285 0.35156,-1.73584 0.35156,-0.83496 0.9668,-1.42822 0.61523,-0.61524 1.42822,-0.9668 0.83496,-0.37353 1.75781,-0.37353 l 17.99561,0 q 0.92285,0 1.73584,0.37353 0.83496,0.35156 1.45019,0.9668 0.61524,0.59326 0.9668,1.42822 0.35156,0.81299 0.35156,1.73584 l 0,22.5 z m -22.5,-22.5 0,22.5 17.99561,0 0,-22.5 -17.99561,0 z"
         style="font-style:normal;font-variant:normal;font-weight:normal;font-stretch:normal;font-size:45px;font-family:aldrich;-inkscape-font-specification:aldrich;fill:#aa0000"
         id="path4152" />
      <path
         d="m 370.95177,621.62177 0,-31.50879 17.24853,0 q 7.64649,0 7.64649,7.66845 l 0,4.48242 q 0,7.66846 -7.64649,7.66846 l -12.74414,0 0,11.68946 -4.50439,0 z m 4.50439,-16.19385 12.50244,0 q 1.80176,0 2.59278,-0.79102 0.79101,-0.79101 0.79101,-2.59277 l 0,-4.04297 q 0,-1.80176 -0.79101,-2.59277 -0.79102,-0.79102 -2.59278,-0.79102 l -12.50244,0 0,10.81055 z"
         style="font-style:normal;font-variant:normal;font-weight:normal;font-stretch:normal;font-size:45px;font-family:aldrich;-inkscape-font-specification:aldrich;fill:#aa0000"
         id="path4154" />
      <path
         d="m 429.15733,617.11737 q 0,0.92285 -0.35156,1.75781 -0.35156,0.81299 -0.9668,1.42823 -0.61523,0.61523 -1.45019,0.96679 -0.81299,0.35157 -1.73584,0.35157 l -17.99561,0 q -0.92285,0 -1.75781,-0.35157 -0.81299,-0.35156 -1.42822,-0.96679 -0.61524,-0.61524 -0.9668,-1.42823 -0.35156,-0.83496 -0.35156,-1.75781 l 0,-22.5 q 0,-0.92285 0.35156,-1.73584 0.35156,-0.83496 0.9668,-1.42822 0.61523,-0.61524 1.42822,-0.9668 0.83496,-0.37353 1.75781,-0.37353 l 17.99561,0 q 0.92285,0 1.73584,0.37353 0.83496,0.35156 1.45019,0.9668 0.61524,0.59326 0.9668,1.42822 0.35156,0.81299 0.35156,1.73584 l 0,22.5 z m -22.5,-22.5 0,22.5 17.99561,0 0,-22.5 -17.99561,0 z"
         style="font-style:normal;font-variant:normal;font-weight:normal;font-stretch:normal;font-size:45px;font-family:aldrich;-inkscape-font-specification:aldrich;fill:#aa0000"
         id="path4156" />
      <path
         d="m 441.72569,590.11298 0,27.00439 16.19385,0 0,4.5044 -20.69824,0 0,-31.50879 4.50439,0 z"
         style="font-style:normal;font-variant:normal;font-weight:normal;font-stretch:normal;font-size:45px;font-family:aldrich;-inkscape-font-specification:aldrich;fill:#aa0000"
         id="path4158" />
      <path
         d="m 460.09483,590.11298 9.1626,14.72168 9.18457,-14.72168 5.22949,0 -12.15088,19.00634 0,12.50245 -4.50439,0 0,-12.50245 -12.15088,-19.00634 5.22949,0 z"
         style="font-style:normal;font-variant:normal;font-weight:normal;font-stretch:normal;font-size:45px;font-family:aldrich;-inkscape-font-specification:aldrich;fill:#aa0000"
         id="path4160" />
    </g>
  </g>
</svg>
